<?xml version="1.0" standalone="no"?>
<!DOCTYPE svg PUBLIC "-//W3C//DTD SVG 20010904//EN"
 "http://www.w3.org/TR/2001/REC-SVG-20010904/DTD/svg10.dtd">
<svg version="1.0" xmlns="http://www.w3.org/2000/svg"
 width="445.000000pt" height="445.000000pt" viewBox="0 0 445.000000 445.000000"
 preserveAspectRatio="xMidYMid meet">
<metadata>
Created by potrace 1.11, written by Peter Selinger 2001-2013
</metadata>
<g transform="translate(0.000000,445.000000) scale(0.100000,-0.100000)"
fill="#000000" stroke="none">
<path d="M2130 3626 c-52 -23 -198 -89 -325 -146 -126 -56 -250 -112 -275
-123 -25 -11 -47 -21 -50 -22 -3 -1 -21 -8 -40 -17 -351 -156 -705 -314 -740
-330 -25 -11 -110 -49 -190 -85 -173 -77 -174 -77 -320 -143 -63 -29 -126 -56
-140 -62 -28 -10 -66 9 385 -192 132 -59 259 -116 283 -127 23 -11 183 -82
355 -158 172 -76 337 -150 367 -164 266 -121 781 -347 791 -347 10 0 142 56
309 132 103 47 1370 608 1372 608 3 0 2 -376 -1 -392 0 -5 -8 -8 -15 -8 -27 0
-107 -61 -133 -102 -42 -63 -57 -142 -40 -220 1 -10 6 -21 10 -24 4 -4 7 -14
7 -22 0 -24 64 -96 104 -117 41 -22 41 -21 16 -179 -5 -34 -12 -81 -15 -106
-3 -25 -8 -52 -10 -60 -2 -8 -7 -46 -11 -85 -3 -38 -8 -72 -9 -75 -2 -3 -6
-30 -9 -60 -4 -30 -9 -67 -12 -81 l-5 -26 195 0 196 0 -6 41 c-3 23 -9 68 -14
101 -5 33 -12 83 -15 110 -4 28 -13 97 -21 155 -8 58 -17 123 -20 145 -3 22
-7 54 -10 71 -4 25 0 32 19 41 110 50 170 197 131 320 -20 64 -92 144 -148
164 -20 7 -36 15 -37 19 -3 23 -1 461 2 463 4 3 101 46 229 102 47 20 98 43
114 50 l29 13 -39 17 c-22 9 -57 25 -79 36 -22 10 -269 120 -550 245 -280 124
-535 237 -565 251 -30 14 -136 61 -235 105 -99 44 -198 88 -220 98 -181 82
-515 230 -517 229 -2 0 -46 -19 -98 -43z"/>
<path d="M1067 1952 c-20 -42 -44 -104 -53 -137 -18 -66 -32 -324 -18 -326 5
0 34 -2 64 -3 111 -6 171 -16 320 -51 41 -10 163 -57 232 -88 143 -67 276
-162 399 -286 75 -76 159 -173 159 -185 0 -3 13 -24 29 -46 l28 -39 30 47
c122 194 337 385 561 497 84 42 244 101 300 111 15 3 45 9 67 14 61 13 153 23
221 24 l61 1 -3 133 c-2 130 -25 275 -45 287 -5 4 -9 12 -9 20 0 8 -12 33 -27
57 l-27 44 -207 -92 c-113 -50 -221 -99 -240 -107 -19 -9 -169 -75 -334 -147
-165 -72 -311 -137 -325 -144 -22 -12 -32 -10 -85 14 -111 52 -416 190 -420
190 -2 0 -32 13 -67 29 -35 16 -151 68 -258 116 -249 111 -281 126 -301 136
-13 7 -23 -6 -52 -69z"/>
</g>
</svg>
